<?xml version="1.0" encoding="utf-8"?>
<!-- Generator: Adobe Illustrator 20.0.0, SVG Export Plug-In . SVG Version: 6.00 Build 0)  -->
<svg version="1.1" id="Layer_1" xmlns="http://www.w3.org/2000/svg" xmlns:xlink="http://www.w3.org/1999/xlink" x="0px" y="0px"
	 viewBox="0 0 16 16" style="enable-background:new 0 0 16 16;" xml:space="preserve">
<style type="text/css">
	.st0{fill:#FFFFFF;}
</style>
<g>
	<path d="M-291,280c0-180.7,0-361.3,0-542c3.5-6.3,5.9-13.7,10.8-18.6c4.8-4.8,12-7.1,18.2-10.4c180.7,0,361.3,0,542,0
		c7.5,2.7,15.3,5.3,20,12.1c3.6,5.2,6,11.2,9,16.9c0,180.7,0,361.3,0,542c-3,9.3-7.2,17.9-16,23.1c-4.1,2.4-8.6,4-13,5.9
		c-180.7,0-361.3,0-542,0c-7.5-2.7-15.3-5.3-20-12.1C-285.6,291.7-288.1,285.7-291,280z M39.9-69.9c-0.5,0.5-1.1,1.1-1.6,1.6
		c0.8,2.1,1.6,4.1,2.3,6.2c1.9,5.3,4.2,10.5,5.6,15.9c1,4.2-0.7,7.9-4.9,9.9c-5.3,2.5-10,1-12-5c-2.7-8.3-4.5-17-6.2-25.6
		C20.8-79.6,18-91.9,9.9-102.1c-11.5-14.4-26.3-22.8-45-23.1c-1.8,0-3.7,1.7-5.5,2.6c1.1,1.5,1.9,3.3,3.3,4.4
		c11.9,9.2,17.6,21,15.6,36.1c-1.7,13.1-8.4,24.1-15,35.1c-7.8,13-15.9,25.8-23.2,39c-9.6,17.5-9.7,35.8-1.8,53.9
		c9.7,22.2,27.2,35.6,49.9,42.8c1.6,0.5,3.8-0.6,5.8-1c-1.3-1.3-2.4-2.9-3.9-4c-3-2.1-6.5-3.5-9.1-5.9C-37,61-36.5,32.8-18.2,16.6
		c3.6-3.2,7.8-5.9,10.9-9.5c3.5-4.3,6.9-9,8.7-14.2c2.1-6.2,1.8-12.8-3.2-18.3c-1-1.1-1.3-3-1.9-4.5c1.7,0,3.6-0.4,5.1,0.2
		c12,4.8,19.2,19,17,31.8c-0.7,4.4-0.9,9-0.3,13.4c1.1,7.5,7.4,10.9,15.5,9c7.9-1.9,10.3-6,8.2-14c-0.8-3-1.7-5.9-2.6-8.9
		c0.5-0.4,1-0.8,1.5-1.2c2.6,2.5,5.6,4.6,7.6,7.5C59.2,23,58.6,44,46.7,60.1C43.1,65,38.4,69.2,34.6,74c-1.1,1.4-1,3.7-1.4,5.6
		c2,0.5,3.9,1.2,5.9,1.3c1,0.1,2.1-0.9,3.1-1.5c24.4-14.1,39.1-34.7,41.4-63.2c2.7-33.8-9.1-61.3-36.1-82.1
		C45.2-67.6,42.4-68.6,39.9-69.9z M-216.5,5.3c0.4,7.1,0.7,14.3,1.3,21.4c3.7,46.3,21.6,86.2,54.2,119.3c4.9,5,11.1,8.9,17.3,12.4
		c4,2.3,8.5,1.1,11.7-2.8c3-3.8,2.9-7.8,0.2-11.5c-2.8-3.9-6.2-7.4-9.3-11c-7.6-8.8-15.9-17.1-22.6-26.6
		c-21.4-30.5-29.3-65.1-29.3-102c0-46.3,16-85.8,49-118.5c3.8-3.7,7.3-7.7,10.7-11.8c2.9-3.5,4.5-7.5,1.2-11.8
		c-2.9-3.8-7.6-5.4-12.6-3c-4.4,2.1-8.9,4.8-12.4,8.2C-196-94.8-216.6-49.3-216.5,5.3z M220.8,12c-0.2-3.7-0.4-10-0.8-16.3
		c-0.1-2.7-0.6-5.3-0.8-7.9c-4.3-45.4-23.1-84-54.7-116.4c-4.7-4.8-10.6-8.5-16.5-11.7c-3.8-2.1-8.2-1-11.3,2.7
		c-3.1,3.7-3.1,7.7-0.5,11.5c2.1,3.2,4.5,6.2,7.2,8.9c11.1,10.8,21.4,22.4,29.4,35.8c19.4,32.1,26.1,67.3,24.5,104.3
		c-1.9,44.2-19.1,81.4-51.1,112c-3.1,3-5.8,6.4-8.5,9.8c-2.9,3.6-4.4,7.5-1,11.8c3.1,3.8,7.6,5.3,12.5,2.8c4.7-2.4,9.4-5.2,13.1-8.9
		C200.3,113,220.6,68.1,220.8,12z M10.3,137.1c33.8,0,67.7,0,101.5,0c7.4,0,13.1-5.2,13.3-12c0.2-6.9-5.1-12.3-12.6-12.8
		c-1.5-0.1-3,0-4.5,0c-30.3,0-60.7,0-91,0c-35.3,0-70.7,0-106,0.1c-2.8,0-5.7,0.2-8.3,1.2c-5.3,2-8.3,8-7.2,13.4
		c1.2,6.1,6,10.2,12.4,10.2C-58,137.1-23.8,137.1,10.3,137.1z"/>
	<path class="st0" d="M-262-291c-6.2,3.4-13.5,5.6-18.2,10.4c-4.9,4.9-7.3,12.3-10.8,18.6c0-9.7,0-19.3,0-29
		C-281.3-291-271.7-291-262-291z"/>
	<path class="st0" d="M309-262c-2.9-5.7-5.4-11.7-9-16.9c-4.7-6.8-12.5-9.4-20-12.1c9.7,0,19.3,0,29,0C309-281.3,309-271.7,309-262z
		"/>
	<path class="st0" d="M-291,280c2.9,5.7,5.4,11.7,9,16.9c4.7,6.8,12.5,9.4,20,12.1c-9.6,0-19.2,0-29,0C-291,299.3-291,289.7-291,280
		z"/>
	<path class="st0" d="M280,309c4.3-1.9,8.9-3.5,13-5.9c8.8-5.2,13-13.8,16-23.1c0,9.7,0,19.3,0,29C299.3,309,289.7,309,280,309z"/>
	<path class="st0" d="M39.9-69.9c2.5,1.3,5.3,2.3,7.5,4c27,20.7,38.8,48.3,36.1,82.1c-2.2,28.5-17,49.1-41.4,63.2
		c-1,0.6-2.1,1.5-3.1,1.5c-2-0.1-4-0.8-5.9-1.3c0.4-1.9,0.3-4.3,1.4-5.6c3.8-4.8,8.5-9,12.1-13.9C58.6,44,59.2,23,48.4,7.8
		c-2-2.8-5.1-5-7.6-7.5c-0.5,0.4-1,0.8-1.5,1.2c0.9,3,1.8,5.9,2.6,8.9c2.1,8-0.3,12.1-8.2,14c-8,1.9-14.4-1.5-15.5-9
		c-0.6-4.4-0.5-9,0.3-13.4c2.2-12.9-5-27-17-31.8c-1.5-0.6-3.4-0.2-5.1-0.2c0.6,1.5,0.8,3.4,1.9,4.5c5,5.5,5.3,12.1,3.2,18.3
		C-0.4-2-3.8,2.8-7.3,7.1c-3,3.7-7.2,6.3-10.9,9.5C-36.5,32.8-37,61-19.1,77.9c2.6,2.4,6.1,3.8,9.1,5.9c1.5,1.1,2.6,2.6,3.9,4
		c-1.9,0.4-4.1,1.5-5.8,1C-34.5,81.7-52.1,68.2-61.7,46C-69.6,27.9-69.5,9.6-60-7.9c7.3-13.3,15.4-26,23.2-39
		c6.6-11,13.2-22,15-35.1c2-15.1-3.7-26.9-15.6-36.1c-1.4-1.1-2.2-2.9-3.3-4.4c1.8-0.9,3.7-2.6,5.5-2.6c18.7,0.3,33.5,8.6,45,23.1
		C18-91.9,20.8-79.6,23.2-67c1.6,8.6,3.5,17.3,6.2,25.6c2,6,6.7,7.5,12,5c4.2-2,5.9-5.7,4.9-9.9c-1.3-5.4-3.7-10.6-5.6-15.9
		c-0.8-2.1-1.5-4.1-2.3-6.2C38.8-68.9,39.4-69.4,39.9-69.9z"/>
	<path class="st0" d="M-216.5,5.3c-0.1-54.5,20.5-100.1,59.3-137.8c3.5-3.4,7.9-6.1,12.4-8.2c4.9-2.4,9.6-0.8,12.6,3
		c3.3,4.3,1.7,8.3-1.2,11.8c-3.4,4.1-6.9,8.1-10.7,11.8c-32.9,32.6-49,72.1-49,118.5c0,36.9,8,71.4,29.3,102
		c6.6,9.5,15,17.8,22.6,26.6c3.1,3.7,6.5,7.2,9.3,11c2.7,3.7,2.8,7.8-0.2,11.5c-3.1,3.9-7.7,5.1-11.7,2.8
		c-6.1-3.5-12.4-7.4-17.3-12.4c-32.6-33.1-50.5-73-54.2-119.3C-215.7,19.6-216,12.4-216.5,5.3z"/>
	<path class="st0" d="M220.8,12c-0.2,56.2-20.5,101-58.3,138.2c-3.7,3.7-8.4,6.5-13.1,8.9c-4.9,2.5-9.5,1-12.5-2.8
		c-3.4-4.2-1.9-8.2,1-11.8c2.7-3.4,5.4-6.8,8.5-9.8c32-30.5,49.2-67.7,51.1-112c1.6-37.1-5.1-72.2-24.5-104.3
		c-8.1-13.4-18.3-24.9-29.4-35.8c-2.7-2.6-5.1-5.7-7.2-8.9c-2.6-3.8-2.6-7.8,0.5-11.5c3.1-3.7,7.5-4.8,11.3-2.7
		c5.9,3.3,11.8,7,16.5,11.7c31.7,32.4,50.4,71.1,54.7,116.4c0.3,2.7,0.7,5.3,0.8,7.9C220.4,2,220.6,8.3,220.8,12z"/>
	<path class="st0" d="M10.3,137.1c-34.2,0-68.3,0-102.5,0c-6.4,0-11.2-4.1-12.4-10.2c-1.1-5.4,1.9-11.4,7.2-13.4
		c2.6-1,5.5-1.2,8.3-1.2c35.3-0.1,70.7-0.1,106-0.1c30.3,0,60.7,0,91,0c1.5,0,3-0.1,4.5,0c7.5,0.5,12.8,5.9,12.6,12.8
		c-0.2,6.9-5.8,12-13.3,12C78,137.1,44.2,137.1,10.3,137.1z"/>
</g>
</svg>
